# xmcd
#
# Track frame offsets:
#	150
#	12891
#	26803
#	43918
#	52118
#	67408
#	81200
#	94665
#	104357
#	123766
#	138154
#	154199
#	165363
#	175199
#	191042
#	203287
#	218866
#	234747
#
# Disc length: 3293 seconds
#
# Revision: 0
# Processed by: cddbd v1.5.2PL0 Copyright (c) Steve Scherf et al.
# Submitted via: EZCDAudioConverter 2.0.7.1
#
DISCID=f70cdb12
DTITLE=Nicoletta - Master Series
DYEAR=1900
DGENRE=
TTITLE0=Ma vie c'est un manege
TTITLE1=La solitude ca n'existe pas
TTITLE2=Mamy Blue
TTITLE3=Pour oublier qu'on s'est aime
TTITLE4=La musique (Angelica)
TTITLE5=Glory Alleluia
TTITLE6=Encore un jour sans toi
TTITLE7=L'homme a la moto
TTITLE8=quand on a que l'amour
TTITLE9=Il est mort le soleil
TTITLE10=Fio Maravilla
TTITLE11=Les volets clos
TTITLE12=La bande a Nico
TTITLE13=Broadway
TTITLE14=Ou es-tu passe mon saint-germain des pres
TTITLE15=A quoi sert de vivre libre
TTITLE16=Vivre pour l'amour
TTITLE17=aie, aie, caramba
EXTD=
EXTT0=
EXTT1=
EXTT2=
EXTT3=
EXTT4=
EXTT5=
EXTT6=
EXTT7=
EXTT8=
EXTT9=
EXTT10=
EXTT11=
EXTT12=
EXTT13=
EXTT14=
EXTT15=
EXTT16=
EXTT17=
PLAYORDER=
